<?xml version="1.0" encoding="UTF-8" standalone="no"?>
<!-- Created with Inkscape (http://www.inkscape.org/) -->

<svg
   width="210mm"
   height="297mm"
   viewBox="0 0 210 297"
   version="1.1"
   id="svg1"
   inkscape:version="1.3.2 (091e20e, 2023-11-25, custom)"
   sodipodi:docname="drawing.svg"
   xmlns:inkscape="http://www.inkscape.org/namespaces/inkscape"
   xmlns:sodipodi="http://sodipodi.sourceforge.net/DTD/sodipodi-0.dtd"
   xmlns="http://www.w3.org/2000/svg"
   xmlns:svg="http://www.w3.org/2000/svg">
  <sodipodi:namedview
     id="namedview1"
     pagecolor="#ffffff"
     bordercolor="#000000"
     borderopacity="0.25"
     inkscape:showpageshadow="2"
     inkscape:pageopacity="0.0"
     inkscape:pagecheckerboard="0"
     inkscape:deskcolor="#d1d1d1"
     inkscape:document-units="mm"
     inkscape:zoom="1.3606449"
     inkscape:cx="375.18974"
     inkscape:cy="217.54391"
     inkscape:window-width="1280"
     inkscape:window-height="778"
     inkscape:window-x="-6"
     inkscape:window-y="-6"
     inkscape:window-maximized="1"
     inkscape:current-layer="layer1" />
  <defs
     id="defs1">
    <marker
       style="overflow:visible"
       id="Dot"
       refX="0"
       refY="0"
       orient="auto"
       inkscape:stockid="Dot"
       markerWidth="1"
       markerHeight="1"
       viewBox="0 0 1 1"
       inkscape:isstock="true"
       inkscape:collect="always"
       preserveAspectRatio="xMidYMid">
      <path
         transform="scale(0.5)"
         style="fill:context-stroke;fill-rule:evenodd;stroke:none"
         d="M 5,0 C 5,2.76 2.76,5 0,5 -2.76,5 -5,2.76 -5,0 c 0,-2.76 2.3,-5 5,-5 2.76,0 5,2.24 5,5 z"
         sodipodi:nodetypes="sssss"
         id="path17" />
    </marker>
    <marker
       style="overflow:visible"
       id="marker3"
       refX="0"
       refY="0"
       orient="auto-start-reverse"
       inkscape:stockid="Dart arrow"
       markerWidth="1"
       markerHeight="1"
       viewBox="0 0 1 1"
       inkscape:isstock="true"
       inkscape:collect="always"
       preserveAspectRatio="xMidYMid">
      <path
         style="fill:context-stroke;fill-rule:evenodd;stroke:none"
         d="M 0,0 5,-5 -12.5,0 5,5 Z"
         transform="scale(-0.5)"
         id="path3" />
    </marker>
    <marker
       style="overflow:visible"
       id="Dot-2"
       refX="0"
       refY="0"
       orient="auto"
       inkscape:stockid="Dot"
       markerWidth="1"
       markerHeight="1"
       viewBox="0 0 1 1"
       inkscape:isstock="true"
       inkscape:collect="always"
       preserveAspectRatio="xMidYMid">
      <path
         transform="scale(0.5)"
         style="fill:context-stroke;fill-rule:evenodd;stroke:none"
         d="M 5,0 C 5,2.76 2.76,5 0,5 -2.76,5 -5,2.76 -5,0 c 0,-2.76 2.3,-5 5,-5 2.76,0 5,2.24 5,5 z"
         sodipodi:nodetypes="sssss"
         id="path17-0" />
    </marker>
    <marker
       style="overflow:visible"
       id="Dot-1"
       refX="0"
       refY="0"
       orient="auto"
       inkscape:stockid="Dot"
       markerWidth="1"
       markerHeight="1"
       viewBox="0 0 1 1"
       inkscape:isstock="true"
       inkscape:collect="always"
       preserveAspectRatio="xMidYMid">
      <path
         transform="scale(0.5)"
         style="fill:context-stroke;fill-rule:evenodd;stroke:none"
         d="M 5,0 C 5,2.76 2.76,5 0,5 -2.76,5 -5,2.76 -5,0 c 0,-2.76 2.3,-5 5,-5 2.76,0 5,2.24 5,5 z"
         sodipodi:nodetypes="sssss"
         id="path17-5" />
    </marker>
    <marker
       style="overflow:visible"
       id="Dot-13"
       refX="0"
       refY="0"
       orient="auto"
       inkscape:stockid="Dot"
       markerWidth="1"
       markerHeight="1"
       viewBox="0 0 1 1"
       inkscape:isstock="true"
       inkscape:collect="always"
       preserveAspectRatio="xMidYMid">
      <path
         transform="scale(0.5)"
         style="fill:context-stroke;fill-rule:evenodd;stroke:none"
         d="M 5,0 C 5,2.76 2.76,5 0,5 -2.76,5 -5,2.76 -5,0 c 0,-2.76 2.3,-5 5,-5 2.76,0 5,2.24 5,5 z"
         sodipodi:nodetypes="sssss"
         id="path17-7" />
    </marker>
    <marker
       style="overflow:visible"
       id="Dot-3"
       refX="0"
       refY="0"
       orient="auto"
       inkscape:stockid="Dot"
       markerWidth="1"
       markerHeight="1"
       viewBox="0 0 1 1"
       inkscape:isstock="true"
       inkscape:collect="always"
       preserveAspectRatio="xMidYMid">
      <path
         transform="scale(0.5)"
         style="fill:context-stroke;fill-rule:evenodd;stroke:none"
         d="M 5,0 C 5,2.76 2.76,5 0,5 -2.76,5 -5,2.76 -5,0 c 0,-2.76 2.3,-5 5,-5 2.76,0 5,2.24 5,5 z"
         sodipodi:nodetypes="sssss"
         id="path17-9" />
    </marker>
    <marker
       style="overflow:visible"
       id="Dot-6"
       refX="0"
       refY="0"
       orient="auto"
       inkscape:stockid="Dot"
       markerWidth="1"
       markerHeight="1"
       viewBox="0 0 1 1"
       inkscape:isstock="true"
       inkscape:collect="always"
       preserveAspectRatio="xMidYMid">
      <path
         transform="scale(0.5)"
         style="fill:context-stroke;fill-rule:evenodd;stroke:none"
         d="M 5,0 C 5,2.76 2.76,5 0,5 -2.76,5 -5,2.76 -5,0 c 0,-2.76 2.3,-5 5,-5 2.76,0 5,2.24 5,5 z"
         sodipodi:nodetypes="sssss"
         id="path17-4" />
    </marker>
    <marker
       style="overflow:visible"
       id="Dot-0"
       refX="0"
       refY="0"
       orient="auto"
       inkscape:stockid="Dot"
       markerWidth="1"
       markerHeight="1"
       viewBox="0 0 1 1"
       inkscape:isstock="true"
       inkscape:collect="always"
       preserveAspectRatio="xMidYMid">
      <path
         transform="scale(0.5)"
         style="fill:context-stroke;fill-rule:evenodd;stroke:none"
         d="M 5,0 C 5,2.76 2.76,5 0,5 -2.76,5 -5,2.76 -5,0 c 0,-2.76 2.3,-5 5,-5 2.76,0 5,2.24 5,5 z"
         sodipodi:nodetypes="sssss"
         id="path17-3" />
    </marker>
    <marker
       style="overflow:visible"
       id="Dot-01"
       refX="0"
       refY="0"
       orient="auto"
       inkscape:stockid="Dot"
       markerWidth="1"
       markerHeight="1"
       viewBox="0 0 1 1"
       inkscape:isstock="true"
       inkscape:collect="always"
       preserveAspectRatio="xMidYMid">
      <path
         transform="scale(0.5)"
         style="fill:context-stroke;fill-rule:evenodd;stroke:none"
         d="M 5,0 C 5,2.76 2.76,5 0,5 -2.76,5 -5,2.76 -5,0 c 0,-2.76 2.3,-5 5,-5 2.76,0 5,2.24 5,5 z"
         sodipodi:nodetypes="sssss"
         id="path17-78" />
    </marker>
    <marker
       style="overflow:visible"
       id="Dot-20"
       refX="0"
       refY="0"
       orient="auto"
       inkscape:stockid="Dot"
       markerWidth="1"
       markerHeight="1"
       viewBox="0 0 1 1"
       inkscape:isstock="true"
       inkscape:collect="always"
       preserveAspectRatio="xMidYMid">
      <path
         transform="scale(0.5)"
         style="fill:context-stroke;fill-rule:evenodd;stroke:none"
         d="M 5,0 C 5,2.76 2.76,5 0,5 -2.76,5 -5,2.76 -5,0 c 0,-2.76 2.3,-5 5,-5 2.76,0 5,2.24 5,5 z"
         sodipodi:nodetypes="sssss"
         id="path17-77" />
    </marker>
    <marker
       style="overflow:visible"
       id="Dot-19"
       refX="0"
       refY="0"
       orient="auto"
       inkscape:stockid="Dot"
       markerWidth="1"
       markerHeight="1"
       viewBox="0 0 1 1"
       inkscape:isstock="true"
       inkscape:collect="always"
       preserveAspectRatio="xMidYMid">
      <path
         transform="scale(0.5)"
         style="fill:context-stroke;fill-rule:evenodd;stroke:none"
         d="M 5,0 C 5,2.76 2.76,5 0,5 -2.76,5 -5,2.76 -5,0 c 0,-2.76 2.3,-5 5,-5 2.76,0 5,2.24 5,5 z"
         sodipodi:nodetypes="sssss"
         id="path17-08" />
    </marker>
    <marker
       style="overflow:visible"
       id="Dot-4"
       refX="0"
       refY="0"
       orient="auto"
       inkscape:stockid="Dot"
       markerWidth="1"
       markerHeight="1"
       viewBox="0 0 1 1"
       inkscape:isstock="true"
       inkscape:collect="always"
       preserveAspectRatio="xMidYMid">
      <path
         transform="scale(0.5)"
         style="fill:context-stroke;fill-rule:evenodd;stroke:none"
         d="M 5,0 C 5,2.76 2.76,5 0,5 -2.76,5 -5,2.76 -5,0 c 0,-2.76 2.3,-5 5,-5 2.76,0 5,2.24 5,5 z"
         sodipodi:nodetypes="sssss"
         id="path17-04" />
    </marker>
    <marker
       style="overflow:visible"
       id="Dot-40"
       refX="0"
       refY="0"
       orient="auto"
       inkscape:stockid="Dot"
       markerWidth="1"
       markerHeight="1"
       viewBox="0 0 1 1"
       inkscape:isstock="true"
       inkscape:collect="always"
       preserveAspectRatio="xMidYMid">
      <path
         transform="scale(0.5)"
         style="fill:context-stroke;fill-rule:evenodd;stroke:none"
         d="M 5,0 C 5,2.76 2.76,5 0,5 -2.76,5 -5,2.76 -5,0 c 0,-2.76 2.3,-5 5,-5 2.76,0 5,2.24 5,5 z"
         sodipodi:nodetypes="sssss"
         id="path17-44" />
    </marker>
  </defs>
  <g
     inkscape:label="Layer 1"
     inkscape:groupmode="layer"
     id="layer1">
    <path
       style="fill:none;stroke:#000000;stroke-width:0.499999;stroke-dasharray:none"
       d="m 30.140427,79.726288 c 0,0 6.520865,-9.389818 8.909572,-14.551291 4.536005,-9.801313 9.809549,-25.194897 20.647489,-25.117399 10.713097,0.07661 14.649049,15.488798 20.052508,25.117399 5.155832,9.187347 9.470281,24.380679 20.005092,24.468465 10.681832,0.08901 17.720492,-14.208723 20.694912,-24.468465 2.33345,-8.048833 8.6472,-25.11008 19.18196,-25.117397 10.54596,-0.0073 16.00935,17.765926 19.23726,25.117397"
       id="path5"
       sodipodi:nodetypes="csasasac" />
    <path
       style="fill:none;stroke:#000000;stroke-width:0.499999;stroke-dasharray:none;marker-end:url(#marker3)"
       d="M 39.049999,99.657861 V 24.209568"
       id="path6" />
    <path
       style="fill:none;stroke:#000000;stroke-width:0.499999;stroke-dasharray:none;marker-end:url(#marker3)"
       d="m 39.049999,65.174997 125.847301,0"
       id="path7"
       sodipodi:nodetypes="cc" />
    <text
       xml:space="preserve"
       style="font-size:3.175px;fill:#000000;stroke:none;stroke-width:0.499999;stroke-dasharray:none"
       x="66.999199"
       y="32.084969"
       id="text7"><tspan
         sodipodi:role="line"
         id="tspan7"
         style="fill:#000000;stroke:none;stroke-width:0.5"
         x="66.999199"
         y="32.084969">buffer length = N</tspan></text>
    <path
       style="fill:none;stroke:#ff0000;stroke-width:0.474121;stroke-dasharray:none;marker-end:url(#Dot)"
       d="m 39.049999,65.174997 v 0"
       id="path8"
       sodipodi:nodetypes="cc" />
    <path
       style="fill:none;stroke:#ff0000;stroke-width:0.474121;stroke-dasharray:none;marker-end:url(#Dot-2)"
       d="m 46.449999,65.174997 0,-15.362652"
       id="path8-2"
       sodipodi:nodetypes="cc" />
    <path
       style="fill:none;stroke:#ff0000;stroke-width:0.474121;stroke-dasharray:none;marker-end:url(#Dot-1)"
       d="m 53.849999,65.174997 0,-23.491487"
       id="path8-26"
       sodipodi:nodetypes="cc" />
    <path
       style="fill:none;stroke:#ff0000;stroke-width:0.474121;stroke-dasharray:none;marker-end:url(#Dot-13)"
       d="m 61.249999,65.174997 0,-24.99425"
       id="path8-1"
       sodipodi:nodetypes="cc" />
    <path
       style="fill:none;stroke:#ff0000;stroke-width:0.474121;stroke-dasharray:none;marker-end:url(#Dot-3)"
       d="m 68.649999,65.174997 0,-20.491976"
       id="path8-5"
       sodipodi:nodetypes="cc" />
    <path
       style="fill:none;stroke:#ff0000;stroke-width:0.474121;stroke-dasharray:none;marker-end:url(#Dot-6)"
       d="m 76.049999,65.174997 0,-7.530005"
       id="path8-9"
       sodipodi:nodetypes="cc" />
    <path
       style="fill:none;stroke:#ff0000;stroke-width:0.474121;stroke-dasharray:none;marker-end:url(#Dot-0)"
       d="m 83.45,65.174997 0,7.435714"
       id="path8-0"
       sodipodi:nodetypes="cc" />
    <path
       style="fill:none;stroke:#ff0000;stroke-width:0.474121;stroke-dasharray:none;marker-end:url(#Dot-01)"
       d="m 90.85,65.174997 0,19.92632"
       id="path8-95"
       sodipodi:nodetypes="cc" />
    <path
       style="fill:none;stroke:#ff0000;stroke-width:0.474121;stroke-dasharray:none;marker-end:url(#Dot-20)"
       d="m 98.25,65.174997 0,24.349171"
       id="path8-25"
       sodipodi:nodetypes="cc" />
    <path
       style="fill:none;stroke:#ff0000;stroke-width:0.474121;stroke-dasharray:none;marker-end:url(#Dot-19)"
       d="m 105.65,65.174997 0,22.982006"
       id="path8-8"
       sodipodi:nodetypes="cc" />
    <path
       style="fill:none;stroke:#ff0000;stroke-width:0.474121;stroke-dasharray:none;marker-end:url(#Dot-4)"
       d="m 113.05,65.174997 0,16.034853"
       id="path8-11"
       sodipodi:nodetypes="cc" />
    <path
       style="fill:none;stroke:#ff0000;stroke-width:0.474121;stroke-dasharray:none;marker-end:url(#Dot-40)"
       d="m 120.45,65.174997 v 0"
       id="path8-7"
       sodipodi:nodetypes="cc" />
    <text
       xml:space="preserve"
       style="font-size:4.93889px;fill:#000000;stroke:#ff0000;stroke-width:0.499999;stroke-dasharray:none"
       x="121.6353"
       y="71.063133"
       id="text40"><tspan
         sodipodi:role="line"
         id="tspan40"
         style="font-size:4.93889px;fill:#000000;stroke:none;stroke-width:0.25"
         x="121.6353"
         y="71.063133">N-1</tspan></text>
    <text
       xml:space="preserve"
       style="font-size:4.9389px;fill:#000000;stroke:none;stroke-width:0.25;stroke-dasharray:none"
       x="39.651939"
       y="71.013741"
       id="text41"><tspan
         sodipodi:role="line"
         id="tspan41"
         style="stroke-width:0.25;fill:#000000"
         x="39.651939"
         y="71.013741">0</tspan></text>
    <rect
       style="fill:none;stroke-width:0.5;stroke:#d40000"
       id="rect1"
       width="81.399994"
       height="58.850002"
       x="39.049999"
       y="35.749996" />
  </g>
</svg>
